<?xml version="1.0" encoding="UTF-8" standalone="no"?>
<svg xmlns="http://www.w3.org/2000/svg" version="1.1"
    viewBox="0 0 128 128" width="128" height="128" id="Gradivus_svg">
 <rect
  style="fill:#ffffff;stroke:#000000;stroke-width:4"
  width="124"
  height="92"
  x="2"
  y="18" />
 <path
  style="fill:none;fill-rule:evenodd;stroke:#000000;stroke-width:2px;stroke-linecap:butt;stroke-linejoin:miter;stroke-opacity:1"
  d="M 1,15 15,1" />
 <path
  style="fill:none;fill-rule:evenodd;stroke:#000000;stroke-width:2px;stroke-linecap:butt;stroke-linejoin:miter;stroke-opacity:1"
  d="M 1,1 15,15" />
 <path
  style="fill:none;fill-rule:evenodd;stroke:#000000;stroke-width:2px;stroke-linecap:butt;stroke-linejoin:miter;stroke-opacity:1"
  d="M 113,15 127,1" />
 <path
  style="fill:none;fill-rule:evenodd;stroke:#000000;stroke-width:2px;stroke-linecap:butt;stroke-linejoin:miter;stroke-opacity:1"
  d="M 113,1 127,15" />
 <path
  style="fill:none;fill-rule:evenodd;stroke:#000000;stroke-width:2px;stroke-linecap:butt;stroke-linejoin:miter;stroke-opacity:1"
  d="M 23.4,15 37.4,1" />
 <path
  style="fill:none;fill-rule:evenodd;stroke:#000000;stroke-width:2px;stroke-linecap:butt;stroke-linejoin:miter;stroke-opacity:1"
  d="M 23.4,1 37.4,15" />
 <path
  style="fill:none;fill-rule:evenodd;stroke:#000000;stroke-width:2px;stroke-linecap:butt;stroke-linejoin:miter;stroke-opacity:1"
  d="M 45.8,15 59.8,1" />
 <path
  style="fill:none;fill-rule:evenodd;stroke:#000000;stroke-width:2px;stroke-linecap:butt;stroke-linejoin:miter;stroke-opacity:1"
  d="M 45.8,1 59.8,15" />
 <path
  style="fill:none;fill-rule:evenodd;stroke:#000000;stroke-width:2px;stroke-linecap:butt;stroke-linejoin:miter;stroke-opacity:1"
  d="M 68.2,15 82.2,1" />
 <path
  style="fill:none;fill-rule:evenodd;stroke:#000000;stroke-width:2px;stroke-linecap:butt;stroke-linejoin:miter;stroke-opacity:1"
  d="M 68.2,1 82.2,15" />
 <path
  style="fill:none;fill-rule:evenodd;stroke:#000000;stroke-width:2px;stroke-linecap:butt;stroke-linejoin:miter;stroke-opacity:1"
  d="M 90.6,15 104.6,1" />
 <path
  style="fill:none;fill-rule:evenodd;stroke:#000000;stroke-width:2px;stroke-linecap:butt;stroke-linejoin:miter;stroke-opacity:1"
  d="M 90.6,1 104.6,15" />
 <path
  style="fill:none;fill-rule:evenodd;stroke:#000000;stroke-width:3px;stroke-linecap:butt;stroke-linejoin:miter;stroke-opacity:1"
  d="M 23.4,34 Q 50 73, 104.6 94" />
 <path
  style="fill:none;fill-rule:evenodd;stroke:#000000;stroke-width:3px;stroke-linecap:butt;stroke-linejoin:miter;stroke-opacity:1"
  d="M 23.4,94 Q 78 73, 104.6 34" />
 <path
  style="fill:none;fill-rule:evenodd;stroke:#000000;stroke-width:2px;stroke-linecap:butt;stroke-linejoin:miter;stroke-opacity:1"
  d="M 103.6 94 A 6 6 0 0 1 90 86" />
 <path
  style="fill:none;fill-rule:evenodd;stroke:#000000;stroke-width:2px;stroke-linecap:butt;stroke-linejoin:miter;stroke-opacity:1"
  d="M 24.4 94 A 6 6 0 0 0 38 86" />
</svg>